<?xml version="1.0" encoding="utf-8"?>
<!-- Generator: Adobe Illustrator 22.1.0, SVG Export Plug-In . SVG Version: 6.00 Build 0)  -->
<svg version="1.1" id="Calque_1" xmlns="http://www.w3.org/2000/svg" xmlns:xlink="http://www.w3.org/1999/xlink" x="0px" y="0px"
	 viewBox="0 0 274 84" style="enable-background:new 0 0 274 84;" xml:space="preserve">
<style type="text/css">
	.st0{fill:#28334A;}
	.st1{fill-rule:evenodd;clip-rule:evenodd;fill:#F5B22F;}
	.st2{fill-rule:evenodd;clip-rule:evenodd;fill:#00A574;}
</style>
<g>
	<g>
		<path class="st0" d="M114.8,39.7l0-9.4l-4.5,7.6h-2.2l-4.4-7.4v9.1h-4.5V22h4l6.1,10.2l5.9-10.2h4l0,17.7H114.8z"/>
		<path class="st0" d="M122.8,23.7c-0.5-0.5-0.8-1.1-0.8-1.8c0-0.7,0.3-1.3,0.8-1.8c0.5-0.5,1.2-0.7,2.1-0.7s1.6,0.2,2.1,0.7
			c0.5,0.5,0.8,1.1,0.8,1.8c0,0.8-0.3,1.4-0.8,1.9c-0.5,0.5-1.2,0.7-2.1,0.7S123.3,24.2,122.8,23.7z M122.5,26h4.7v13.7h-4.7V26z"/>
		<path class="st0" d="M143.1,27.3c1,1,1.5,2.5,1.5,4.6v7.8h-4.7v-7.1c0-1.9-0.7-2.8-2.2-2.8c-0.8,0-1.5,0.3-1.9,0.8
			c-0.5,0.5-0.7,1.4-0.7,2.4v6.6h-4.7V26h4.5v1.5c0.5-0.6,1.2-1,1.9-1.3s1.5-0.4,2.4-0.4C140.7,25.8,142,26.3,143.1,27.3z"/>
		<path class="st0" d="M147.8,23.7c-0.5-0.5-0.8-1.1-0.8-1.8c0-0.7,0.3-1.3,0.8-1.8c0.5-0.5,1.2-0.7,2.1-0.7s1.6,0.2,2.1,0.7
			c0.5,0.5,0.8,1.1,0.8,1.8c0,0.8-0.3,1.4-0.8,1.9c-0.5,0.5-1.2,0.7-2.1,0.7S148.3,24.2,147.8,23.7z M147.5,26h4.7v13.7h-4.7V26z"/>
		<path class="st0" d="M110.8,52h4.3v7.3c-1,0.7-2.1,1.3-3.4,1.7c-1.3,0.4-2.6,0.6-3.9,0.6c-1.8,0-3.5-0.4-4.9-1.2
			c-1.5-0.8-2.6-1.9-3.4-3.3c-0.8-1.4-1.2-3-1.2-4.8c0-1.8,0.4-3.4,1.2-4.8c0.8-1.4,2-2.5,3.4-3.3c1.5-0.8,3.1-1.2,5-1.2
			c1.6,0,3.1,0.3,4.4,0.8c1.3,0.6,2.4,1.4,3.2,2.4l-3.1,2.9c-1.2-1.3-2.6-2-4.2-2c-1.5,0-2.7,0.5-3.6,1.4c-0.9,0.9-1.4,2.1-1.4,3.7
			c0,1,0.2,1.9,0.6,2.6c0.4,0.8,1,1.4,1.7,1.8c0.7,0.4,1.6,0.6,2.6,0.6c0.9,0,1.8-0.2,2.6-0.6V52z"/>
		<path class="st0" d="M124.3,47.8c0.8-0.3,1.6-0.5,2.6-0.5v4.3c-0.4-0.1-0.8-0.1-1.1-0.1c-1,0-1.8,0.3-2.4,0.8
			c-0.6,0.6-0.9,1.4-0.9,2.6v6.3H118V47.5h4.5v1.6C122.9,48.5,123.6,48.1,124.3,47.8z"/>
		<path class="st0" d="M142.4,55.6h-9.8c0.2,0.7,0.6,1.3,1.2,1.6c0.6,0.4,1.3,0.6,2.1,0.6c0.6,0,1.2-0.1,1.7-0.3
			c0.5-0.2,0.9-0.5,1.4-0.9l2.5,2.6c-1.3,1.5-3.2,2.2-5.7,2.2c-1.6,0-2.9-0.3-4.1-0.9c-1.2-0.6-2.1-1.5-2.8-2.5
			c-0.7-1.1-1-2.3-1-3.7c0-1.4,0.3-2.6,1-3.6c0.6-1.1,1.5-1.9,2.6-2.5c1.1-0.6,2.4-0.9,3.8-0.9c1.3,0,2.6,0.3,3.6,0.8
			c1.1,0.6,2,1.4,2.6,2.5s1,2.3,1,3.8C142.5,54.4,142.5,54.8,142.4,55.6z M133.5,51.3c-0.5,0.4-0.8,1-0.9,1.7h5.5
			c-0.1-0.7-0.4-1.3-0.9-1.7c-0.5-0.4-1.1-0.6-1.8-0.6C134.6,50.7,134,50.9,133.5,51.3z"/>
		<path class="st0" d="M158.3,55.6h-9.8c0.2,0.7,0.6,1.3,1.2,1.6c0.6,0.4,1.3,0.6,2.1,0.6c0.6,0,1.2-0.1,1.7-0.3
			c0.5-0.2,0.9-0.5,1.4-0.9l2.5,2.6c-1.3,1.5-3.2,2.2-5.7,2.2c-1.6,0-2.9-0.3-4.1-0.9c-1.2-0.6-2.1-1.5-2.8-2.5
			c-0.7-1.1-1-2.3-1-3.7c0-1.4,0.3-2.6,1-3.6c0.6-1.1,1.5-1.9,2.6-2.5c1.1-0.6,2.4-0.9,3.8-0.9c1.3,0,2.6,0.3,3.6,0.8
			c1.1,0.6,2,1.4,2.6,2.5s1,2.3,1,3.8C158.4,54.4,158.4,54.8,158.3,55.6z M149.4,51.3c-0.5,0.4-0.8,1-0.9,1.7h5.5
			c-0.1-0.7-0.4-1.3-0.9-1.7c-0.5-0.4-1.1-0.6-1.8-0.6C150.5,50.7,149.9,50.9,149.4,51.3z"/>
		<path class="st0" d="M173.3,48.8c1,1,1.5,2.5,1.5,4.6v7.8h-4.7v-7.1c0-1.9-0.7-2.8-2.2-2.8c-0.8,0-1.5,0.3-1.9,0.8
			c-0.5,0.5-0.7,1.4-0.7,2.4v6.6h-4.7V47.5h4.5V49c0.5-0.6,1.2-1,1.9-1.3s1.5-0.4,2.4-0.4C171,47.3,172.3,47.8,173.3,48.8z"/>
		<path class="st0" d="M197.3,44.3c1.2,0.5,2,1.3,2.7,2.3c0.6,1,0.9,2.1,0.9,3.5c0,1.3-0.3,2.5-0.9,3.5c-0.6,1-1.5,1.7-2.7,2.3
			c-1.2,0.5-2.5,0.8-4.1,0.8h-3v4.6h-4.9V43.5h7.9C194.7,43.5,196.1,43.8,197.3,44.3z M195.2,52c0.5-0.4,0.8-1.1,0.8-1.9
			c0-0.8-0.3-1.5-0.8-1.9c-0.5-0.5-1.3-0.7-2.3-0.7h-2.7v5.2h2.7C193.9,52.7,194.6,52.4,195.2,52z"/>
		<path class="st0" d="M205.9,60.6c-1.2-0.6-2.1-1.5-2.7-2.5c-0.7-1.1-1-2.3-1-3.7c0-1.4,0.3-2.6,1-3.6c0.7-1.1,1.6-1.9,2.7-2.5
			s2.4-0.9,3.9-0.9c1.5,0,2.8,0.3,3.9,0.9c1.2,0.6,2.1,1.4,2.7,2.5c0.6,1.1,1,2.3,1,3.7s-0.3,2.6-1,3.7c-0.6,1.1-1.5,1.9-2.7,2.5
			c-1.2,0.6-2.5,0.9-3.9,0.9C208.3,61.5,207,61.2,205.9,60.6z M211.8,56.8c0.5-0.6,0.8-1.4,0.8-2.4c0-1-0.3-1.8-0.8-2.4
			s-1.2-0.9-2-0.9c-0.8,0-1.5,0.3-2,0.9c-0.5,0.6-0.8,1.4-0.8,2.4c0,1,0.3,1.8,0.8,2.4c0.5,0.6,1.2,0.9,2,0.9
			C210.6,57.6,211.2,57.4,211.8,56.8z"/>
		<path class="st0" d="M241.4,47.5l-4.8,13.7H232l-2.5-7.5l-2.6,7.5h-4.6l-4.8-13.7h4.5l2.7,8.3l2.8-8.3h4l2.8,8.4l2.8-8.4H241.4z"
			/>
		<path class="st0" d="M256.1,55.6h-9.8c0.2,0.7,0.6,1.3,1.2,1.6c0.6,0.4,1.3,0.6,2.1,0.6c0.6,0,1.2-0.1,1.7-0.3
			c0.5-0.2,0.9-0.5,1.4-0.9l2.5,2.6c-1.3,1.5-3.2,2.2-5.7,2.2c-1.6,0-2.9-0.3-4.1-0.9c-1.2-0.6-2.1-1.5-2.8-2.5
			c-0.7-1.1-1-2.3-1-3.7c0-1.4,0.3-2.6,1-3.6c0.6-1.1,1.5-1.9,2.6-2.5c1.1-0.6,2.4-0.9,3.8-0.9c1.3,0,2.6,0.3,3.6,0.8
			c1.1,0.6,2,1.4,2.6,2.5s1,2.3,1,3.8C256.2,54.4,256.1,54.8,256.1,55.6z M247.2,51.3c-0.5,0.4-0.8,1-0.9,1.7h5.5
			c-0.1-0.7-0.4-1.3-0.9-1.7c-0.5-0.4-1.1-0.6-1.8-0.6C248.3,50.7,247.7,50.9,247.2,51.3z"/>
		<path class="st0" d="M264.7,47.8c0.8-0.3,1.6-0.5,2.6-0.5v4.3c-0.4-0.1-0.8-0.1-1.1-0.1c-1,0-1.8,0.3-2.4,0.8
			c-0.6,0.6-0.9,1.4-0.9,2.6v6.3h-4.7V47.5h4.5v1.6C263.3,48.5,263.9,48.1,264.7,47.8z"/>
	</g>
	<g>
		<path class="st0" d="M100.7,67h1l-0.9,5.5h2.7l-0.2,1h-3.7L100.7,67z"/>
		<path class="st0" d="M108.3,66.7c0.1,0.1,0.2,0.3,0.2,0.5c0,0.1,0,0.2,0,0.3c0,0.1-0.1,0.2-0.2,0.4l-0.7,1.4H107l0.5-1.4
			c-0.1-0.1-0.1-0.1-0.2-0.3c0-0.1-0.1-0.2-0.1-0.4c0-0.2,0.1-0.4,0.2-0.6s0.3-0.2,0.5-0.2C108.1,66.5,108.2,66.6,108.3,66.7z"/>
		<path class="st0" d="M115.3,71.3h-3.1c0,0.8,0.4,1.2,1.1,1.2c0.2,0,0.4,0,0.6-0.1c0.2-0.1,0.4-0.2,0.5-0.4l0.4,0.8
			c-0.2,0.2-0.4,0.4-0.7,0.5c-0.3,0.1-0.6,0.2-0.9,0.2c-0.4,0-0.7-0.1-1-0.3c-0.3-0.2-0.5-0.4-0.7-0.8c-0.2-0.3-0.2-0.7-0.2-1.1
			c0-0.5,0.1-1,0.3-1.5c0.2-0.4,0.5-0.8,0.8-1c0.3-0.2,0.7-0.4,1.2-0.4c0.6,0,1,0.2,1.3,0.6s0.5,0.9,0.5,1.6
			C115.3,70.9,115.3,71.1,115.3,71.3z M112.7,69.7c-0.2,0.2-0.4,0.5-0.5,0.9h2.3c0-0.4-0.1-0.7-0.3-0.9c-0.2-0.2-0.4-0.3-0.7-0.3
			S112.9,69.5,112.7,69.7z M114.2,66.6h1.1l-1.4,1.3h-0.8L114.2,66.6z"/>
		<path class="st0" d="M122.7,68.9c0.3,0.3,0.4,0.7,0.4,1.2c0,0.1,0,0.3-0.1,0.6l-0.4,2.7h-0.9l0.4-2.7c0-0.1,0-0.3,0-0.4
			c0-0.6-0.3-0.9-0.8-0.9c-0.3,0-0.6,0.1-0.8,0.4c-0.2,0.2-0.4,0.6-0.5,1.1l-0.4,2.6h-0.9l0.8-4.9h0.9l-0.1,0.5
			c0.4-0.4,0.8-0.6,1.4-0.6C122.1,68.5,122.5,68.6,122.7,68.9z"/>
		<path class="st0" d="M130.9,71.3h-3.1c0,0.8,0.4,1.2,1.1,1.2c0.2,0,0.4,0,0.6-0.1c0.2-0.1,0.4-0.2,0.5-0.4l0.4,0.8
			c-0.2,0.2-0.4,0.4-0.7,0.5c-0.3,0.1-0.6,0.2-0.9,0.2c-0.4,0-0.7-0.1-1-0.3c-0.3-0.2-0.5-0.4-0.7-0.8c-0.2-0.3-0.2-0.7-0.2-1.1
			c0-0.5,0.1-1,0.3-1.5c0.2-0.4,0.5-0.8,0.8-1c0.3-0.2,0.7-0.4,1.2-0.4c0.6,0,1,0.2,1.3,0.6s0.5,0.9,0.5,1.6
			C130.9,70.9,130.9,71.1,130.9,71.3z M128.3,69.7c-0.2,0.2-0.4,0.5-0.5,0.9h2.3c0-0.4-0.1-0.7-0.3-0.9c-0.2-0.2-0.4-0.3-0.7-0.3
			S128.5,69.5,128.3,69.7z"/>
		<path class="st0" d="M136.5,68.6c0.2-0.1,0.5-0.2,0.9-0.2l-0.2,1.1c-0.1,0-0.2,0-0.2,0c-0.8,0-1.2,0.5-1.4,1.5l-0.4,2.4h-0.9
			l0.8-4.9h0.9l-0.1,0.6C136.1,68.9,136.3,68.7,136.5,68.6z"/>
		<path class="st0" d="M145.1,68.5l-0.7,4.2c-0.1,0.9-0.4,1.6-0.8,2s-0.9,0.6-1.6,0.6c-0.8,0-1.4-0.2-1.9-0.7l0.5-0.9
			c0.2,0.2,0.4,0.3,0.6,0.4c0.3,0.1,0.5,0.2,0.8,0.2c0.4,0,0.8-0.1,1-0.4c0.2-0.2,0.4-0.6,0.5-1.1l0-0.2c-0.4,0.4-0.8,0.6-1.3,0.6
			c-0.3,0-0.6-0.1-0.9-0.3s-0.5-0.4-0.6-0.7c-0.2-0.3-0.2-0.7-0.2-1.1c0-0.5,0.1-1,0.3-1.4c0.2-0.4,0.5-0.7,0.8-1
			c0.3-0.2,0.7-0.4,1.2-0.4c0.3,0,0.6,0.1,0.8,0.2c0.2,0.1,0.4,0.4,0.6,0.7l0.1-0.8H145.1z M143.1,72c0.2-0.1,0.4-0.3,0.5-0.6
			c0.1-0.3,0.2-0.5,0.2-0.9c0-0.4-0.1-0.6-0.3-0.8s-0.4-0.3-0.8-0.3c-0.3,0-0.5,0.1-0.7,0.2c-0.2,0.1-0.4,0.3-0.5,0.6
			c-0.1,0.3-0.2,0.5-0.2,0.9c0,0.3,0.1,0.6,0.3,0.8s0.4,0.3,0.8,0.3C142.6,72.3,142.9,72.2,143.1,72z"/>
		<path class="st0" d="M149.2,68.5h0.9l-0.8,4.9h-0.9L149.2,68.5z M149.5,67.5c-0.1-0.1-0.2-0.3-0.2-0.5c0-0.2,0.1-0.4,0.2-0.5
			c0.1-0.1,0.3-0.2,0.5-0.2c0.2,0,0.3,0.1,0.4,0.2c0.1,0.1,0.2,0.3,0.2,0.4c0,0.2-0.1,0.4-0.2,0.6s-0.3,0.2-0.5,0.2
			C149.7,67.7,149.6,67.6,149.5,67.5z"/>
		<path class="st0" d="M157.6,71.3h-3.1c0,0.8,0.4,1.2,1.1,1.2c0.2,0,0.4,0,0.6-0.1c0.2-0.1,0.4-0.2,0.5-0.4l0.4,0.8
			c-0.2,0.2-0.4,0.4-0.7,0.5c-0.3,0.1-0.6,0.2-0.9,0.2c-0.4,0-0.7-0.1-1-0.3c-0.3-0.2-0.5-0.4-0.7-0.8c-0.2-0.3-0.2-0.7-0.2-1.1
			c0-0.5,0.1-1,0.3-1.5c0.2-0.4,0.5-0.8,0.8-1c0.3-0.2,0.7-0.4,1.2-0.4c0.6,0,1,0.2,1.3,0.6s0.5,0.9,0.5,1.6
			C157.7,70.9,157.7,71.1,157.6,71.3z M155,69.7c-0.2,0.2-0.4,0.5-0.5,0.9h2.3c0-0.4-0.1-0.7-0.3-0.9c-0.2-0.2-0.4-0.3-0.7-0.3
			S155.2,69.5,155,69.7z"/>
		<path class="st0" d="M171.1,66.6l-1.1,6.9h-0.9l0.1-0.5c-0.4,0.4-0.8,0.6-1.3,0.6c-0.3,0-0.6-0.1-0.9-0.3s-0.5-0.4-0.6-0.8
			c-0.2-0.3-0.2-0.7-0.2-1.2c0-0.6,0.1-1.1,0.3-1.5c0.2-0.4,0.5-0.8,0.8-1c0.3-0.2,0.7-0.4,1.1-0.4c0.3,0,0.6,0.1,0.8,0.2
			c0.2,0.1,0.4,0.3,0.5,0.6l0.4-2.6H171.1z M168.8,72.3c0.2-0.2,0.4-0.4,0.5-0.7c0.1-0.3,0.2-0.6,0.2-1c0-0.4-0.1-0.7-0.3-0.9
			c-0.2-0.2-0.4-0.3-0.8-0.3c-0.3,0-0.5,0.1-0.7,0.2c-0.2,0.2-0.4,0.4-0.5,0.7c-0.1,0.3-0.2,0.6-0.2,1c0,0.4,0.1,0.7,0.3,0.9
			c0.2,0.2,0.4,0.3,0.8,0.3C168.4,72.5,168.6,72.4,168.8,72.3z"/>
		<path class="st0" d="M178.2,71.3h-3.1c0,0.8,0.4,1.2,1.1,1.2c0.2,0,0.4,0,0.6-0.1c0.2-0.1,0.4-0.2,0.5-0.4l0.4,0.8
			c-0.2,0.2-0.4,0.4-0.7,0.5c-0.3,0.1-0.6,0.2-0.9,0.2c-0.4,0-0.7-0.1-1-0.3c-0.3-0.2-0.5-0.4-0.7-0.8c-0.2-0.3-0.2-0.7-0.2-1.1
			c0-0.5,0.1-1,0.3-1.5c0.2-0.4,0.5-0.8,0.8-1c0.3-0.2,0.7-0.4,1.2-0.4c0.6,0,1,0.2,1.3,0.6s0.5,0.9,0.5,1.6
			C178.3,70.9,178.3,71.1,178.2,71.3z M175.6,69.7c-0.2,0.2-0.4,0.5-0.5,0.9h2.3c0-0.4-0.1-0.7-0.3-0.9c-0.2-0.2-0.4-0.3-0.7-0.3
			S175.8,69.5,175.6,69.7z"/>
		<path class="st0" d="M191.7,66.6l-1.1,6.9h-0.9l0.1-0.5c-0.4,0.4-0.8,0.6-1.3,0.6c-0.3,0-0.6-0.1-0.9-0.3s-0.5-0.4-0.6-0.8
			c-0.2-0.3-0.2-0.7-0.2-1.2c0-0.6,0.1-1.1,0.3-1.5c0.2-0.4,0.5-0.8,0.8-1c0.3-0.2,0.7-0.4,1.1-0.4c0.3,0,0.6,0.1,0.8,0.2
			c0.2,0.1,0.4,0.3,0.5,0.6l0.4-2.6H191.7z M189.4,72.3c0.2-0.2,0.4-0.4,0.5-0.7c0.1-0.3,0.2-0.6,0.2-1c0-0.4-0.1-0.7-0.3-0.9
			c-0.2-0.2-0.4-0.3-0.8-0.3c-0.3,0-0.5,0.1-0.7,0.2c-0.2,0.2-0.4,0.4-0.5,0.7c-0.1,0.3-0.2,0.6-0.2,1c0,0.4,0.1,0.7,0.3,0.9
			c0.2,0.2,0.4,0.3,0.8,0.3C189,72.5,189.2,72.4,189.4,72.3z"/>
		<path class="st0" d="M198.8,71.3h-3.1c0,0.8,0.4,1.2,1.1,1.2c0.2,0,0.4,0,0.6-0.1c0.2-0.1,0.4-0.2,0.5-0.4l0.4,0.8
			c-0.2,0.2-0.4,0.4-0.7,0.5c-0.3,0.1-0.6,0.2-0.9,0.2c-0.4,0-0.7-0.1-1-0.3c-0.3-0.2-0.5-0.4-0.7-0.8c-0.2-0.3-0.2-0.7-0.2-1.1
			c0-0.5,0.1-1,0.3-1.5c0.2-0.4,0.5-0.8,0.8-1c0.3-0.2,0.7-0.4,1.2-0.4c0.6,0,1,0.2,1.3,0.6s0.5,0.9,0.5,1.6
			C198.9,70.9,198.9,71.1,198.8,71.3z M196.2,69.7c-0.2,0.2-0.4,0.5-0.5,0.9h2.3c0-0.4-0.1-0.7-0.3-0.9c-0.2-0.2-0.4-0.3-0.7-0.3
			S196.4,69.5,196.2,69.7z"/>
		<path class="st0" d="M209,68.9c0.3,0.3,0.4,0.7,0.4,1.2c0,0.2,0,0.4-0.1,0.6l-0.4,2.7H208l0.4-2.7c0-0.1,0-0.3,0-0.4
			c0-0.6-0.3-0.9-0.8-0.9c-0.7,0-1.1,0.5-1.2,1.4l-0.4,2.6h-0.9l0.4-2.7c0-0.1,0-0.3,0-0.4c0-0.6-0.3-0.9-0.8-0.9
			c-0.7,0-1.1,0.5-1.2,1.4l-0.4,2.6h-0.9l0.8-4.9h0.9l-0.1,0.5c0.3-0.4,0.8-0.6,1.3-0.6c0.3,0,0.5,0.1,0.7,0.2
			c0.2,0.1,0.4,0.3,0.5,0.6c0.4-0.5,0.9-0.8,1.6-0.8C208.4,68.5,208.8,68.6,209,68.9z"/>
		<path class="st0" d="M217.7,68.5l-0.8,4.9h-0.9l0.1-0.5c-0.3,0.4-0.8,0.6-1.3,0.6c-0.3,0-0.6-0.1-0.9-0.3s-0.5-0.4-0.6-0.8
			c-0.2-0.3-0.2-0.7-0.2-1.2c0-0.5,0.1-1,0.3-1.5c0.2-0.4,0.5-0.8,0.8-1c0.3-0.2,0.7-0.4,1.1-0.4c0.6,0,1.1,0.3,1.3,0.8l0.1-0.7
			H217.7z M215.8,72.3c0.2-0.2,0.4-0.4,0.5-0.7c0.1-0.3,0.2-0.6,0.2-1c0-0.4-0.1-0.7-0.3-0.9c-0.2-0.2-0.4-0.3-0.8-0.3
			c-0.3,0-0.5,0.1-0.7,0.2c-0.2,0.2-0.4,0.4-0.5,0.7c-0.1,0.3-0.2,0.6-0.2,1c0,0.4,0.1,0.7,0.3,0.9c0.2,0.2,0.4,0.3,0.8,0.3
			C215.4,72.5,215.6,72.4,215.8,72.3z"/>
		<path class="st0" d="M221.9,68.5h0.9l-0.8,4.9h-0.9L221.9,68.5z M222.2,67.5c-0.1-0.1-0.2-0.3-0.2-0.5c0-0.2,0.1-0.4,0.2-0.5
			c0.1-0.1,0.3-0.2,0.5-0.2c0.2,0,0.3,0.1,0.4,0.2c0.1,0.1,0.2,0.3,0.2,0.4c0,0.2-0.1,0.4-0.2,0.6s-0.3,0.2-0.5,0.2
			C222.4,67.7,222.3,67.6,222.2,67.5z"/>
		<path class="st0" d="M230.2,68.9c0.3,0.3,0.4,0.7,0.4,1.2c0,0.1,0,0.3-0.1,0.6l-0.4,2.7h-0.9l0.4-2.7c0-0.1,0-0.3,0-0.4
			c0-0.6-0.3-0.9-0.8-0.9c-0.3,0-0.6,0.1-0.8,0.4c-0.2,0.2-0.4,0.6-0.5,1.1l-0.4,2.6h-0.9l0.8-4.9h0.9l-0.1,0.5
			c0.4-0.4,0.8-0.6,1.4-0.6C229.6,68.5,230,68.6,230.2,68.9z"/>
	</g>
	<g>
		<path class="st1" d="M41.3,55.5c-0.1,0.1-0.1,0.2-0.2,0.4c-0.1,0.2-0.3,0.4-0.4,0.6c0.7,0.7,1.3,1.4,1.8,2.1
			c0.3-0.3,0.6-0.7,0.8-1.1C42.9,56.6,42.2,55.9,41.3,55.5z M43.6,49.1c-0.9,0.2-1.8,0.5-2.7,1.2c0.2,0.4,0.4,0.8,0.6,1.2
			c1-0.2,2-0.3,2.9-0.4c0-0.1-0.1-0.3-0.1-0.4C44.1,50.1,43.9,49.6,43.6,49.1z M41.8,53.3c1,0.3,1.9,0.6,2.8,1.1
			c0.1-0.6,0.1-1.1,0.1-1.7c-0.9-0.4-1.9-0.6-3-0.5C41.7,52.5,41.8,52.9,41.8,53.3z M34.9,45c0,0.9,0.1,1.8,0.4,2.8
			c0.3-0.1,0.6-0.1,0.9-0.1c0.1,0,0.3,0,0.4,0c0.2-1,0.4-1.9,0.7-2.8c-0.3,0-0.6-0.1-0.9-0.1C35.9,44.9,35.4,44.9,34.9,45z
			 M38.9,43.2c1,0.2,2,0.7,2.8,1.2c4.4-5,9.9-8.3,18-8.2c14.5,0.1,33.5-2,27.8-23.4C78.2,23.2,69.4,27.9,56.8,33
			C50.5,35.4,42.1,37.3,38.9,43.2z M44.3,59.6c-0.2,0.3-0.5,0.6-0.8,0.8c0.4,1.1,0.6,2.4,0.5,3.8c-0.4,5.9,0,13.7,8.9,11.9
			c-4-4-5.7-7.7-7.5-13C45,62.1,44.7,60.8,44.3,59.6z M50.7,58.3c-1.3-1.4-2.6-3.1-4.1-4.4c0,0.5-0.1,1-0.3,1.5
			c1.4,1.1,2.6,2.6,3.5,4.8c2.6,6.6,7.1,14.8,15.7,8.2C59.1,66.2,55.4,63.1,50.7,58.3z M42.8,45.1c0.7,0.6,1.4,1.2,1.9,2
			c4.5-2.1,9.5-2.7,15.2-0.5C71.1,51,86.4,55,88.3,36.7c-10.3,5.4-18.5,6.4-29.7,6.6C53.4,43.3,47,42.4,42.8,45.1z M55.4,52.4
			c-3-1.2-6.4-3.1-9.7-3.4c0.2,0.4,0.3,0.7,0.4,1.1c0.1,0.3,0.2,0.6,0.3,1c3.1,0.2,6.1,1.4,9,4.1c6.7,6.4,16.5,13.6,23.2,1.1
			C69.7,57.1,63.5,55.5,55.4,52.4z M41.2,46.4c-0.6,0.7-1.2,1.5-1.7,2.4c0.3,0.2,0.6,0.5,0.9,0.8c0.8-0.6,1.7-1.1,2.5-1.6
			C42.4,47.4,41.8,46.8,41.2,46.4z M37.7,47.9c0.4,0.1,0.7,0.2,1.1,0.4c0.6-0.8,1.1-1.6,1.7-2.4c-0.7-0.4-1.5-0.7-2.3-0.9
			C37.9,45.9,37.7,46.9,37.7,47.9z M35.1,43c0.4-0.1,0.9-0.1,1.3-0.1c0.5,0,1,0,1.5,0.1c1.7-4.7,4.8-8.6,10.5-11.2
			c11.2-4.9,25-13.1,13.2-27.6C58.1,15.5,53,22.2,45.1,30.4C41.5,34.1,36.3,38,35.1,43z"/>
		<path class="st2" d="M38.5,63.1C38.2,64,37.7,65,37,65.9c-3.3,4.1-6.9,10,0.5,13.1c-0.9-5-0.3-8.5,1-13.2c0.3-0.9,0.7-1.9,1-2.9
			c0,0,0,0,0,0C39.1,63,38.8,63,38.5,63.1z"/>
		<path class="st2" d="M32.7,62.6c-0.6,0.4-1.2,0.8-2,1.1c-4.6,1.8-10.4,4.9-5.9,11c1.6-4.5,3.8-7.2,7.2-10.4
			c0.5-0.5,1.1-0.9,1.6-1.4C33.3,62.8,33,62.7,32.7,62.6z"/>
		<path class="st2" d="M29,60.1c-0.2-0.3-0.5-0.5-0.7-0.8c-1,0.1-2.1,0.1-3.3-0.2c-5.3-1.2-12.5-2-12.1,6.3c4.3-3.1,7.9-4.1,13-4.9
			C26.8,60.4,27.9,60.3,29,60.1z"/>
		<path class="st2" d="M34.3,48.1c-0.2-0.9-0.3-1.9-0.4-2.8c-0.7,0.2-1.4,0.6-2,1c0.3,0.8,0.7,1.6,1.3,2.4
			C33.5,48.4,33.9,48.2,34.3,48.1z"/>
		<path class="st2" d="M30.5,47.4c-0.5,0.5-0.9,1.1-1.3,1.7c0.6,0.6,1.3,1.1,2.1,1.6c0.2-0.4,0.4-0.7,0.7-1
			C31.5,48.9,31,48.1,30.5,47.4z"/>
		<path class="st2" d="M30.9,52c-0.8-0.4-1.6-0.7-2.3-1.2c-0.2,0.6-0.3,1.3-0.3,1.9c0.8,0.3,1.6,0.5,2.5,0.5
			C30.7,52.8,30.8,52.4,30.9,52z"/>
		<path class="st2" d="M36.2,58.8c-0.3,0-0.5,0-0.8-0.1c-0.3,0.8-0.7,1.6-1.2,2.3c0.4,0.1,0.7,0.2,1.1,0.2c0.6-0.8,1.1-1.6,1.1-2.5
			C36.4,58.8,36.3,58.8,36.2,58.8z"/>
		<path class="st2" d="M38.5,58.3c0.2,0.9,0.3,1.8,0.3,2.7c0,0,0,0,0.1,0c0.4-0.1,0.7-0.3,1.1-0.4c0.1-1-0.1-1.9-0.6-2.7
			C39,58,38.8,58.2,38.5,58.3z"/>
		<path class="st2" d="M31.3,59.6c0.9-0.3,1.6-0.8,2.1-1.5c-0.3-0.2-0.6-0.4-0.9-0.6c-0.7,0.5-1.4,1-2.2,1.3
			C30.7,59,31,59.3,31.3,59.6z"/>
		<path class="st2" d="M28.5,55.4c0,0,0,0.1,0,0.1c0.2,0.5,0.4,1,0.6,1.4c0.8,0,1.6-0.2,2.5-0.7c-0.2-0.2-0.3-0.5-0.4-0.8
			C30.3,55.5,29.4,55.5,28.5,55.4z"/>
		<path class="st2" d="M26.8,56.5c0-0.1-0.1-0.3-0.1-0.4c-0.1-0.4-0.2-0.8-0.3-1.1c-1.8-0.6-3.4-1.6-4.9-3.4
			C17.2,46.4,10.9,40.3,5,48.7c6.4,0.2,10.7,1.9,16.2,4.8C23,54.5,24.9,55.9,26.8,56.5z"/>
		<path class="st2" d="M33.4,43.4c0.1,0,0.2-0.1,0.4-0.1c0-4,1.2-7.9,4.6-11.5c7.2-7.8,15.4-19,1-26.5c1.1,10.2-0.7,17.2-4.1,26.5
			c-1.5,3.9-4,8.4-3.8,12.4C32.1,43.9,32.7,43.6,33.4,43.4z"/>
		<path class="st2" d="M20.8,44.2c1.6,2.4,3.3,5.5,5.5,7.4c0.1-0.7,0.3-1.3,0.5-1.9c-2.2-1.7-3.8-4.1-4.6-7.5
			c-1.9-8.3-5.7-18.8-17.1-12.6C12.3,33.4,16.2,37.7,20.8,44.2z"/>
		<path class="st2" d="M28.1,47.2c0.4-0.6,0.9-1.2,1.5-1.7c-1.3-2.9-1.8-6.2-0.6-10.1c2.6-8.9,4.5-20.8-9.6-21
			c4.8,7.5,6.2,13.7,7.1,22.3C26.8,40.1,26.7,44.2,28.1,47.2z"/>
		<path class="st2" d="M40.9,51.8c-0.6-2-2.5-3.4-4.6-3.4c-0.5,0-1,0.1-1.4,0.2C33.6,49,32.6,49.9,32,51c-0.6,1.1-0.7,2.4-0.3,3.7
			c0.6,2,2.5,3.4,4.6,3.4c0.5,0,1-0.1,1.4-0.2c1.2-0.4,2.2-1.2,2.8-2.4C41.1,54.3,41.2,53,40.9,51.8z M37.4,57.1
			c-0.4,0.1-0.8,0.2-1.2,0.2c-1.8,0-3.3-1.1-3.8-2.8c-0.6-2.1,0.5-4.3,2.6-5c2.1-0.7,4.4,0.6,5,2.6C40.7,54.2,39.5,56.4,37.4,57.1z"
			/>
	</g>
</g>
</svg>
