<?xml version="1.0" standalone="no"?>
<!DOCTYPE svg PUBLIC "-//W3C//DTD SVG 20010904//EN"
 "http://www.w3.org/TR/2001/REC-SVG-20010904/DTD/svg10.dtd">
<svg version="1.0" xmlns="http://www.w3.org/2000/svg"
 width="512.000000pt" height="512.000000pt" viewBox="0 0 512.000000 512.000000"
 preserveAspectRatio="xMidYMid meet">

<g transform="translate(0.000000,512.000000) scale(0.100000,-0.100000)"
fill="#000000" stroke="none">
<path d="M998 4108 c-15 -12 -805 -1603 -830 -1671 -22 -61 -12 -70 192 -172
104 -52 201 -95 214 -95 13 0 33 8 44 17 31 28 832 1662 832 1699 0 17 -8 38
-18 47 -29 27 -367 187 -394 187 -13 0 -31 -6 -40 -12z"/>
<path d="M3881 4034 c-96 -46 -183 -92 -193 -101 -10 -9 -18 -30 -18 -47 0
-37 801 -1671 832 -1698 11 -10 31 -18 44 -18 33 0 400 185 408 205 3 9 6 24
6 34 0 24 -818 1683 -838 1699 -30 23 -66 12 -241 -74z"/>
<path d="M3115 3673 c-75 -6 -220 -33 -300 -56 -44 -13 -251 -88 -460 -168
-321 -122 -385 -150 -417 -180 -43 -41 -48 -68 -18 -116 31 -52 71 -67 191
-71 127 -5 269 14 469 63 79 20 152 33 162 29 11 -3 338 -201 726 -440 389
-239 708 -430 710 -425 2 5 -2 36 -7 68 -13 71 -392 851 -476 980 -151 231
-339 333 -580 316z"/>
<path d="M1925 3636 c-211 -33 -380 -130 -500 -286 -29 -37 -123 -217 -253
-482 l-207 -422 0 -121 c0 -115 1 -123 32 -185 70 -142 37 -121 968 -626 462
-251 867 -469 900 -485 36 -17 76 -29 101 -29 67 0 130 55 149 130 6 24 -13
36 -467 288 -260 145 -483 275 -495 288 -47 51 -17 137 52 150 31 5 79 -19
532 -272 274 -153 531 -300 572 -327 135 -92 286 -124 371 -78 44 23 98 118
78 136 -7 7 -292 168 -633 360 -814 457 -751 420 -763 453 -21 62 20 126 81
126 25 0 211 -100 752 -404 l720 -405 75 0 c57 0 83 5 110 20 130 76 61 261
-129 347 -57 26 -310 149 -1188 580 -210 103 -243 127 -243 180 0 41 48 88 90
88 21 0 252 -109 692 -325 l661 -325 49 27 c42 23 94 71 86 78 -3 3 -1055 650
-1297 798 l-114 70 -111 -26 c-334 -79 -580 -87 -704 -23 -60 31 -125 98 -151
156 -29 63 -28 168 1 228 48 101 124 147 421 258 157 59 157 59 115 66 -69 11
-266 7 -353 -6z"/>
<path d="M1007 1748 c-46 -67 -57 -98 -57 -155 0 -88 56 -150 152 -168 74 -14
87 -4 155 116 61 109 62 109 40 123 -29 18 -247 136 -251 136 -1 0 -19 -24
-39 -52z"/>
<path d="M1416 1444 c-36 -64 -66 -124 -66 -133 0 -9 11 -39 24 -67 31 -66 74
-89 156 -81 95 8 271 107 295 165 9 19 12 39 8 43 -9 8 -340 189 -347 189 -2
0 -33 -52 -70 -116z"/>
<path d="M1985 1225 c-30 -77 -3 -171 57 -196 54 -23 192 -17 262 12 32 13 59
28 60 34 1 10 -330 194 -351 195 -6 0 -19 -20 -28 -45z"/>
</g>
</svg>
