<?xml version="1.0" encoding="UTF-8"?>
<svg width="1351px" height="401px" viewBox="0 0 1351 401" version="1.1" xmlns="http://www.w3.org/2000/svg" xmlns:xlink="http://www.w3.org/1999/xlink">
    <title>Identity / Logo / Logo &amp; Tagline - Black</title>
    <g id="Identity-/-Logo-/-Logo-&amp;-Tagline---Black" stroke="none" stroke-width="1" fill="none" fill-rule="evenodd">
        <path d="M537.89,377.9 C550.22,377.9 559.58,367.37 559.58,354.5 C559.58,341.63 550.22,331.1 537.89,331.1 C531.41,331.1 525.92,334.43 523.4,338.03 L523.4,309.5 L513.5,309.5 L513.5,377 L523.4,377 L523.4,370.97 C525.92,374.57 531.41,377.9 537.89,377.9 Z M536.09,368.9 C528.08,368.9 522.59,362.6 522.59,354.5 C522.59,346.4 528.08,340.1 536.09,340.1 C544.01,340.1 549.5,346.4 549.5,354.5 C549.5,362.6 544.01,368.9 536.09,368.9 Z M590,377.9 C599.45,377.9 606.47,373.85 610.52,367.46 L602.96,362.06 C600.62,366.02 596.39,368.9 590.09,368.9 C582.62,368.9 576.68,364.04 576.23,356.66 L611.6,356.66 C611.69,355.22 611.69,354.41 611.69,353.42 C611.69,338.93 601.79,331.1 590,331.1 C576.32,331.1 566.51,341.27 566.51,354.5 C566.51,368.18 576.32,377.9 590,377.9 Z M601.7,349.46 L576.68,349.46 C578.03,342.8 583.88,339.47 589.64,339.47 C595.4,339.47 600.62,342.98 601.7,349.46 Z M635.36,395.81 L664.25,332 L653.27,332 L639.5,363.86 L625.64,332 L614.75,332 L634.1,374.57 L624.47,395.81 L635.36,395.81 Z M690.35,377.9 C703.67,377.9 713.93,367.55 713.93,354.5 C713.93,341.45 703.67,331.1 690.35,331.1 C677.03,331.1 666.77,341.45 666.77,354.5 C666.77,367.55 677.03,377.9 690.35,377.9 Z M690.35,368.72 C682.34,368.72 676.76,362.51 676.76,354.5 C676.76,346.49 682.34,340.28 690.35,340.28 C698.27,340.28 703.85,346.49 703.85,354.5 C703.85,362.51 698.27,368.72 690.35,368.72 Z M733.82,377 L733.82,354.86 C733.82,345.23 738.86,340.1 745.43,340.1 C751.19,340.1 754.79,344.42 754.79,351.53 L754.79,377 L764.69,377 L764.69,349.91 C764.69,338.48 757.94,331.1 747.5,331.1 C741.65,331.1 736.52,333.62 733.82,338.12 L733.82,332 L723.92,332 L723.92,377 L733.82,377 Z M795.83,377.9 C802.31,377.9 807.71,374.57 810.23,370.97 L810.23,377 L820.13,377 L820.13,309.5 L810.23,309.5 L810.23,338.03 C807.71,334.43 802.31,331.1 795.83,331.1 C783.5,331.1 774.14,341.63 774.14,354.5 C774.14,367.37 783.5,377.9 795.83,377.9 Z M797.63,368.9 C789.62,368.9 784.22,362.6 784.22,354.5 C784.22,346.4 789.62,340.1 797.63,340.1 C805.64,340.1 811.04,346.4 811.04,354.5 C811.04,362.6 805.64,368.9 797.63,368.9 Z M869,377.9 C878.27,377.9 885.29,372.59 885.29,363.95 C885.29,356.57 880.61,352.61 872.69,350.27 L868.1,348.92 C863.69,347.66 862.7,345.77 862.7,343.61 C862.7,340.91 865.76,339.38 868.73,339.38 C872.42,339.38 875.3,341.18 877.28,343.97 L884.12,338.75 C880.97,333.8 875.66,331.1 868.91,331.1 C859.91,331.1 852.89,335.96 852.8,343.97 C852.71,350.63 856.76,355.58 864.59,357.74 L868.55,358.82 C873.95,360.44 875.48,361.97 875.48,364.58 C875.48,367.73 872.51,369.35 869,369.35 C864.41,369.35 860,367.1 858.2,363.14 L850.91,368.36 C854.15,374.75 860.99,377.9 869,377.9 Z M905.45,377 L905.45,354.86 C905.45,345.23 910.49,340.1 917.06,340.1 C922.82,340.1 926.42,344.42 926.42,351.53 L926.42,377 L936.32,377 L936.32,349.91 C936.32,338.48 929.57,331.1 919.13,331.1 C913.28,331.1 908.15,333.62 905.45,338.12 L905.45,309.5 L895.55,309.5 L895.55,377 L905.45,377 Z M969.35,377.9 C978.8,377.9 985.82,373.85 989.87,367.46 L982.31,362.06 C979.97,366.02 975.74,368.9 969.44,368.9 C961.97,368.9 956.03,364.04 955.58,356.66 L990.95,356.66 C991.025,355.46 991.0375,354.6975 991.04,353.90375 L991.04,353.42 L991.04,353.42 C991.04,338.93 981.14,331.1 969.35,331.1 C955.67,331.1 945.86,341.27 945.86,354.5 C945.86,368.18 955.67,377.9 969.35,377.9 Z M981.05,349.46 L956.03,349.46 C957.38,342.8 963.23,339.47 968.99,339.47 C974.75,339.47 979.97,342.98 981.05,349.46 Z M1021.55,377.9 C1031,377.9 1038.02,373.85 1042.07,367.46 L1034.51,362.06 C1032.17,366.02 1027.94,368.9 1021.64,368.9 C1014.17,368.9 1008.23,364.04 1007.78,356.66 L1043.15,356.66 C1043.24,355.22 1043.24,354.41 1043.24,353.42 C1043.24,338.93 1033.34,331.1 1021.55,331.1 C1007.87,331.1 998.06,341.27 998.06,354.5 C998.06,368.18 1007.87,377.9 1021.55,377.9 Z M1033.25,349.46 L1008.23,349.46 C1009.58,342.8 1015.43,339.47 1021.19,339.47 C1026.95,339.47 1032.17,342.98 1033.25,349.46 Z M1072.22,377.45 C1075.28,377.45 1077.62,377.09 1079.6,376.46 L1079.6,367.64 C1078.16,368.18 1076.18,368.54 1074.29,368.54 C1069.16,368.54 1066.73,366.47 1066.73,360.89 L1066.73,340.82 L1079.6,340.82 L1079.6,332 L1066.73,332 L1066.73,319.49 L1056.83,319.49 L1056.83,332 L1047.47,332 L1047.47,340.82 L1056.83,340.82 L1056.83,362.51 C1056.83,372.68 1063.58,377.45 1072.22,377.45 Z M1120.01,377 L1120.01,354.86 C1120.01,345.41 1124.42,340.1 1130.81,340.1 C1136.21,340.1 1138.82,344.69 1138.82,351.71 L1138.82,377 L1148.72,377 L1148.72,354.86 C1148.72,345.41 1153.04,340.1 1159.43,340.1 C1164.83,340.1 1167.44,344.69 1167.44,351.71 L1167.44,377 L1177.34,377 L1177.34,350.09 C1177.34,338.57 1171.31,331.1 1161.14,331.1 C1155.2,331.1 1149.44,334.25 1146.74,340.01 C1144.31,334.43 1139.45,331.1 1132.79,331.1 C1127.03,331.1 1122.53,333.89 1120.01,338.12 L1120.01,332 L1110.11,332 L1110.11,377 L1120.01,377 Z M1206.14,377.9 C1211.9,377.9 1216.67,375.38 1219.28,370.88 L1219.28,377 L1229.18,377 L1229.18,332 L1219.28,332 L1219.28,354.14 C1219.28,363.77 1214.69,368.9 1208.3,368.9 C1202.54,368.9 1199.3,364.49 1199.3,357.29 L1199.3,332 L1189.4,332 L1189.4,358.91 C1189.4,370.43 1195.79,377.9 1206.14,377.9 Z M1256.81,377.9 C1266.08,377.9 1273.1,372.59 1273.1,363.95 C1273.1,356.57 1268.42,352.61 1260.5,350.27 L1255.91,348.92 C1251.5,347.66 1250.51,345.77 1250.51,343.61 C1250.51,340.91 1253.57,339.38 1256.54,339.38 C1260.23,339.38 1263.11,341.18 1265.09,343.97 L1271.93,338.75 C1268.78,333.8 1263.47,331.1 1256.72,331.1 C1247.72,331.1 1240.7,335.96 1240.61,343.97 C1240.52,350.63 1244.57,355.58 1252.4,357.74 L1256.36,358.82 C1261.76,360.44 1263.29,361.97 1263.29,364.58 C1263.29,367.73 1260.32,369.35 1256.81,369.35 C1252.22,369.35 1247.81,367.1 1246.01,363.14 L1238.72,368.36 C1241.96,374.75 1248.8,377.9 1256.81,377.9 Z M1288.31,322.19 C1292,322.19 1294.88,319.22 1294.88,315.53 C1294.88,311.93 1292,308.96 1288.31,308.96 C1284.71,308.96 1281.65,311.93 1281.65,315.53 C1281.65,319.22 1284.71,322.19 1288.31,322.19 Z M1293.26,377 L1293.26,332 L1283.36,332 L1283.36,377 L1293.26,377 Z M1327.1,377.9 C1336.37,377.9 1344.2,372.95 1348.07,365.48 L1339.43,360.8 C1337.27,365.39 1332.86,368.72 1327.1,368.72 C1319.09,368.72 1313.42,362.51 1313.42,354.5 C1313.42,346.49 1319.09,340.28 1327.1,340.28 C1332.86,340.28 1337.27,343.61 1339.43,348.2 L1348.07,343.52 C1344.2,336.05 1336.37,331.1 1327.1,331.1 C1313.6,331.1 1303.34,341.18 1303.34,354.5 C1303.34,367.82 1313.6,377.9 1327.1,377.9 Z" id="Punchline" fill="#000000" fill-rule="nonzero"></path>
        <g id="Group">
            <path d="M23.4238,301.4719 L23.4238,220.8309 C23.4238,209.6949 18.0478,200.4789 3.0708,200.4789 L-0.0002,200.4789 L-0.0002,159.0069 L3.0708,159.0069 C18.0478,159.0069 23.4238,149.7899 23.4238,138.6549 L23.4238,58.0139 C23.4238,24.9899 44.9288,3.4859 77.9518,3.4859 L112.1278,3.4859 L112.1278,44.9579 L94.0808,44.9579 C78.3368,44.9579 72.1928,51.1019 72.1928,66.8459 L72.1928,142.1109 C72.1928,164.3819 62.2078,176.2859 48.3838,179.7429 C62.2078,183.1989 72.1928,195.1029 72.1928,217.3749 L72.1928,292.6399 C72.1928,308.3839 78.3368,314.5279 94.0808,314.5279 L112.1278,314.5279 L112.1278,355.9999 L80.2568,355.9999 C47.2328,355.9999 23.4238,334.4949 23.4238,301.4719" id="Bracket" fill="#F58258"></path>
            <g transform="translate(129.000000, 0.000000)" fill="#000000" id="Newzik-Logotype">
                <path d="M318.1424,79.4882 C368.8304,79.4882 413.7584,110.9762 413.7584,173.1852 L413.758266,173.924183 C413.755659,178.783925 413.702205,184.770761 412.6064,193.5372 L273.2134,193.5372 C276.6694,216.5782 298.1744,227.3302 320.0624,227.3302 C342.3344,227.3302 359.2294,216.5782 366.5264,205.4412 L409.5344,237.6972 C391.4864,263.0422 359.6144,279.9372 319.2944,279.9372 C262.8464,279.9372 217.1484,241.5372 217.1484,179.7122 C217.1484,122.4962 259.7734,79.4882 318.1424,79.4882 Z M113.522,83.7125 C152.201,83.8335 185.858,112.6075 185.858,159.3615 L185.858,159.3615 L185.858,275.7135 L127.872,275.7135 L127.872,176.2575 C127.872,147.8405 119.04,134.4005 90.241,134.4005 L90.241,134.4005 L57.985,134.4005 L57.985,275.7135 L-2.84217094e-14,275.7135 L-2.84217094e-14,83.7125 L113.522,83.7125 Z M983.417,83.7126 L983.417,275.7136 L925.433,275.7136 L925.433,83.7126 L983.417,83.7126 Z M562.5598,80.6406 L609.7928,192.0016 L641.6648,83.7126 L702.7208,83.7126 L641.6648,275.7136 L597.5038,275.7136 L562.5598,196.9926 L527.6158,275.7136 L483.4558,275.7136 L422.3988,83.7126 L483.4558,83.7126 L515.3278,192.0016 L562.5598,80.6406 Z M894.3348,83.7126 L805.6288,225.4096 L888.5738,225.4096 L888.5738,275.7136 L708.4768,275.7136 L797.5658,133.6326 L719.9968,133.6326 L719.9968,83.7126 L894.3348,83.7126 Z M1087.4795,83.7126 L1087.4795,180.0976 L1146.2325,83.7126 L1209.5935,83.7126 L1149.6885,181.6326 L1220.7285,275.7136 L1152.3765,275.7136 L1087.4795,189.3136 L1087.4795,275.7136 L1029.4955,275.7136 L1029.4955,83.7126 L1087.4795,83.7126 Z M316.6054,126.7202 C299.7104,126.7202 279.7414,134.4002 274.7494,155.5212 L356.1584,155.5212 C351.1664,135.1682 333.5024,126.7202 316.6054,126.7202 Z M954.6175,0 C973.8165,0 989.1775,15.359 989.1775,34.56 C989.1775,43.008 986.4895,50.688 981.4975,56.448 L981.4975,56.448 L927.7365,56.448 C922.7445,50.688 920.0575,43.008 920.0575,34.56 C920.0575,15.359 935.4175,0 954.6175,0 Z"></path>
            </g>
        </g>
    </g>
</svg>